/home/minht/3dpredictsim_tutorial/predsim_tutorial/Results/Case_16/GRF.mot
version=1
nRows=30
nColumns=19
inDegrees=yes
endheader 
time	r_ground_force_vx	r_ground_force_vy	r_ground_force_vz	r_ground_force_px	r_ground_force_py	r_ground_force_pz	l_ground_force_vx	l_ground_force_vy	l_ground_force_vz	l_ground_force_px	l_ground_force_py	l_ground_force_pz	r_ground_torque_x	r_ground_torque_y	r_ground_torque_z	l_ground_torque_x	l_ground_torque_y	l_ground_torque_z	
          1.10131268	        -16.78583235	         30.88495361	          3.46668098	          0.40581193	          0.00000000	          0.07063150	        -56.32241709	        870.27710764	         16.07030835	          0.76704397	          0.00000000	         -0.04766727	          0.00000000	         -0.04616932	          0.00000000	          0.00000000	         -1.30133653	          0.00000000	
          1.11799924	          0.00000000	          0.00000000	          0.00000000	          0.00000000	          0.00000000	          0.00000000	        -49.18845604	        882.53846707	         18.19655460	          0.76926016	          0.00000000	         -0.04777789	          0.00000000	          0.00000000	          0.00000000	          0.00000000	         -1.42945591	          0.00000000	
          1.13468579	          0.00000000	          0.00000000	          0.00000000	          0.00000000	          0.00000000	          0.00000000	        -42.16760020	        887.37838795	         19.26011518	          0.77128688	          0.00000000	         -0.04794819	          0.00000000	          0.00000000	          0.00000000	          0.00000000	         -1.59049789	          0.00000000	
          1.15137235	          0.00000000	          0.00000000	          0.00000000	          0.00000000	          0.00000000	          0.00000000	        -35.72708682	        886.99682444	         19.49040534	          0.77327576	          0.00000000	         -0.04813132	          0.00000000	          0.00000000	          0.00000000	          0.00000000	         -1.73430787	          0.00000000	
          1.16805890	          0.00000000	          0.00000000	          0.00000000	          0.00000000	          0.00000000	          0.00000000	        -30.25619644	        885.79457858	         19.74539772	          0.77536787	          0.00000000	         -0.04828879	          0.00000000	          0.00000000	          0.00000000	          0.00000000	         -1.83798639	          0.00000000	
          1.18474546	          0.00000000	          0.00000000	          0.00000000	          0.00000000	          0.00000000	          0.00000000	        -25.67582905	        885.77209201	         20.07743070	          0.77752698	          0.00000000	         -0.04843229	          0.00000000	          0.00000000	          0.00000000	          0.00000000	         -2.00742637	          0.00000000	
          1.20143202	          0.00000000	          0.00000000	          0.00000000	          0.00000000	          0.00000000	          0.00000000	        -22.11823570	        887.28774318	         20.52103381	          0.77971161	          0.00000000	         -0.04856602	          0.00000000	          0.00000000	          0.00000000	          0.00000000	         -2.26952885	          0.00000000	
          1.21811857	          0.00000000	          0.00000000	          0.00000000	          0.00000000	          0.00000000	          0.00000000	        -19.47359951	        890.50639836	         20.97702165	          0.78189706	          0.00000000	         -0.04869735	          0.00000000	          0.00000000	          0.00000000	          0.00000000	         -2.65060498	          0.00000000	
          1.23480513	          0.00000000	          0.00000000	          0.00000000	          0.00000000	          0.00000000	          0.00000000	        -16.72768473	        895.49891780	         21.51163011	          0.78422996	          0.00000000	         -0.04880537	          0.00000000	          0.00000000	          0.00000000	          0.00000000	         -3.06941852	          0.00000000	
          1.25149168	          0.00000000	          0.00000000	          0.00000000	          0.00000000	          0.00000000	          0.00000000	        -14.47383331	        900.71274038	         21.97635930	          0.78668031	          0.00000000	         -0.04889561	          0.00000000	          0.00000000	          0.00000000	          0.00000000	         -3.54910527	          0.00000000	
          1.26817824	          0.00000000	          0.00000000	          0.00000000	          0.00000000	          0.00000000	          0.00000000	        -12.14868002	        905.45492107	         22.30054248	          0.78915527	          0.00000000	         -0.04897366	          0.00000000	          0.00000000	          0.00000000	          0.00000000	         -4.05475198	          0.00000000	
          1.28486479	          0.00000000	          0.00000000	          0.00000000	          0.00000000	          0.00000000	          0.00000000	         -9.73155632	        909.40599784	         22.58425340	          0.79165698	          0.00000000	         -0.04903189	          0.00000000	          0.00000000	          0.00000000	          0.00000000	         -4.54489233	          0.00000000	
          1.30155135	          0.00000000	          0.00000000	          0.00000000	          0.00000000	          0.00000000	          0.00000000	         -7.05927857	        912.16807355	         22.71298657	          0.79414544	          0.00000000	         -0.04907361	          0.00000000	          0.00000000	          0.00000000	          0.00000000	         -5.01585528	          0.00000000	
          1.31823791	          0.00000000	          0.00000000	          0.00000000	          0.00000000	          0.00000000	          0.00000000	         -4.13137833	        913.82218718	         22.64953536	          0.79659818	          0.00000000	         -0.04909903	          0.00000000	          0.00000000	          0.00000000	          0.00000000	         -5.45739904	          0.00000000	
          1.33492446	          0.00000000	          0.00000000	          0.00000000	          0.00000000	          0.00000000	          0.00000000	         -1.26727259	        914.74262362	         22.47457463	          0.79902540	          0.00000000	         -0.04910767	          0.00000000	          0.00000000	          0.00000000	          0.00000000	         -5.86035034	          0.00000000	
          1.35161102	          0.00000000	          0.00000000	          0.00000000	          0.00000000	          0.00000000	          0.00000000	          1.69395146	        915.02024359	         22.04911576	          0.80140866	          0.00000000	         -0.04910695	          0.00000000	          0.00000000	          0.00000000	          0.00000000	         -6.20348218	          0.00000000	
          1.36829757	          0.00000000	          0.00000000	          0.00000000	          0.00000000	          0.00000000	          0.00000000	          4.81620593	        914.97527890	         21.34454054	          0.80378899	          0.00000000	         -0.04909572	          0.00000000	          0.00000000	          0.00000000	          0.00000000	         -6.49112021	          0.00000000	
          1.38498413	          0.00000000	          0.00000000	          0.00000000	          0.00000000	          0.00000000	          0.00000000	          7.44189329	        914.97779650	         20.37485949	          0.80617227	          0.00000000	         -0.04907034	          0.00000000	          0.00000000	          0.00000000	          0.00000000	         -6.75319563	          0.00000000	
          1.40167069	          0.00000000	          0.00000000	          0.00000000	          0.00000000	          0.00000000	          0.00000000	         10.47730535	        914.43942935	         19.50087264	          0.80854168	          0.00000000	         -0.04902693	          0.00000000	          0.00000000	          0.00000000	          0.00000000	         -6.98142849	          0.00000000	
          1.41835724	          0.00000000	          0.00000000	          0.00000000	          0.00000000	          0.00000000	          0.00000000	         13.79944175	        912.69476536	         18.69894359	          0.81091918	          0.00000000	         -0.04896364	          0.00000000	          0.00000000	          0.00000000	          0.00000000	         -7.17818140	          0.00000000	
          1.43504380	          0.00000000	          0.00000000	          0.00000000	          0.00000000	          0.00000000	          0.00000000	         17.57892273	        909.15257915	         17.88000640	          0.81330543	          0.00000000	         -0.04887688	          0.00000000	          0.00000000	          0.00000000	          0.00000000	         -7.34630720	          0.00000000	
          1.45173035	          0.00000000	          0.00000000	          0.00000000	          0.00000000	          0.00000000	          0.00000000	         21.49717068	        903.91061249	         17.20060648	          0.81570478	          0.00000000	         -0.04876037	          0.00000000	          0.00000000	          0.00000000	          0.00000000	         -7.48252851	          0.00000000	
          1.46841691	          0.00000000	          0.00000000	          0.00000000	          0.00000000	          0.00000000	          0.00000000	         25.43619357	        897.60539617	         16.54529637	          0.81808718	          0.00000000	         -0.04861986	          0.00000000	          0.00000000	          0.00000000	          0.00000000	         -7.57495461	          0.00000000	
          1.48510346	          0.00000000	          0.00000000	          0.00000000	          0.00000000	          0.00000000	          0.00000000	         29.40945499	        890.71023863	         15.92954076	          0.82044715	          0.00000000	         -0.04846753	          0.00000000	          0.00000000	          0.00000000	          0.00000000	         -7.60773273	          0.00000000	
          1.50179002	          0.00000000	          0.00000000	          0.00000000	          0.00000000	          0.00000000	          0.00000000	         33.46489704	        883.70768111	         15.43281060	          0.82280584	          0.00000000	         -0.04831779	          0.00000000	          0.00000000	          0.00000000	          0.00000000	         -7.58502449	          0.00000000	
          1.51847658	          0.00000000	          0.00000000	          0.00000000	          0.00000000	          0.00000000	          0.00000000	         37.68147036	        877.29316320	         14.97678635	          0.82520048	          0.00000000	         -0.04819741	          0.00000000	          0.00000000	          0.00000000	          0.00000000	         -7.47602682	          0.00000000	
          1.53516313	          0.00000000	          0.00000000	          0.00000000	          0.00000000	          0.00000000	          0.00000000	         42.15945268	        871.19517532	         14.77408782	          0.82756652	          0.00000000	         -0.04814402	          0.00000000	          0.00000000	          0.00000000	          0.00000000	         -7.28837080	          0.00000000	
          1.55184969	          0.00000000	          0.00000000	          0.00000000	          0.00000000	          0.00000000	          0.00000000	         47.41698959	        866.33518263	         14.61803704	          0.82993561	          0.00000000	         -0.04819121	          0.00000000	          0.00000000	          0.00000000	          0.00000000	         -6.99993959	          0.00000000	
          1.56853624	          0.00000000	          0.00000000	          0.00000000	          0.00000000	          0.00000000	          0.00000000	         53.45251207	        864.60844279	         14.78442615	          0.83249385	          0.00000000	         -0.04835341	          0.00000000	          0.00000000	          0.00000000	          0.00000000	         -6.60615709	          0.00000000	
          1.58522280	          0.00000000	          0.00000000	          0.00000000	          0.00000000	          0.00000000	          0.00000000	         59.88161058	        866.45945878	         15.25463079	          0.83537642	          0.00000000	         -0.04865023	          0.00000000	          0.00000000	          0.00000000	          0.00000000	         -6.13130256	          0.00000000	
